# xmcd CD database file
#
# Track frame offsets:
#	150
#	15005
#	28432
#	42386
#	53979
#	68940
#	82488
#	98507
#	110923
#	125931
#	138680
#	150426
#	163741
#	175144
#
# Disc length: 2565 seconds
#
# Revision: 4
# Processed by: cddbd v1.5.1PL0 Copyright (c) Steve Scherf et al.
# Submitted via: CDex 1.50beta8
#
DISCID=c90a030e
DTITLE=Alison Krauss and Union Station - Every Time You Say Goodbye
DYEAR=1992
DGENRE=Bluegrass
TTITLE0=Every Time You Say Goodbye
TTITLE1=Another Night
TTITLE2=Last Love Letter
TTITLE3=Cluck Old Hen
TTITLE4=Who Can Blame You
TTITLE5=It Won't Work This Time
TTITLE6=Heartstrings
TTITLE7=I Don't Know Why
TTITLE8=Cloudy Days
TTITLE9=New Fool
TTITLE10=Shield Of Faith
TTITLE11=Lose Again
TTITLE12=Another Day, Another Dollar
TTITLE13=Jesus Help Me To Stand
EXTD=YEAR: 1992
EXTT0=
EXTT1=
EXTT2=
EXTT3=
EXTT4=
EXTT5=
EXTT6=
EXTT7=
EXTT8=
EXTT9=
EXTT10=
EXTT11=
EXTT12=
EXTT13=
PLAYORDER=
